<?xml version="1.0" encoding="utf-8"?>
<!DOCTYPE svg PUBLIC "-//W3C//DTD SVG 20010904//EN" "http://www.w3.org/TR/2001/REC-SVG-20010904/DTD/svg10.dtd">
<svg version="1.0" xmlns="http://www.w3.org/2000/svg" width="751px" height="377px" viewBox="0 0 751 377" preserveAspectRatio="xMidYMid meet">
 <g fill="#ffffff">
  <path d="M547.5 374.1 c-5.1 -2.3 -10.1 -7.9 -11.4 -12.8 -0.6 -2.1 -1.1 -11.1 -1.1 -20 l0 -16.3 4.9 0 5 0 0.3 18 c0.3 17.9 0.3 18 2.9 20.6 3.2 3.1 10 4.2 13.9 2.2 5 -2.6 6 -6.7 6 -24.5 l0 -16.3 5.1 0 5.1 0 -0.4 17.8 c-0.4 15.7 -0.6 18.2 -2.6 21.8 -5.2 10 -17.4 14.2 -27.7 9.5z"/>
  <path d="M24 349.9 l0 -25.1 12.8 0.4 c14.1 0.4 17.4 1.5 21.3 6.9 4.8 6.8 3.2 16.3 -3.7 21.5 -3.3 2.6 -4.7 2.9 -12.1 3.3 l-8.3 0.3 0 8.9 0 8.9 -5 0 -5 0 0 -25.1z m25.1 -3.8 c2.5 -3 2.4 -7.6 -0.1 -10.1 -1.6 -1.6 -3.3 -2 -8.5 -2 l-6.5 0 0 7.6 0 7.6 6.6 -0.4 c5.5 -0.3 7 -0.8 8.5 -2.7z"/>
  <path d="M101 350 l0 -25 10.8 0 c5.9 0 12.5 0.5 14.7 1.1 11.6 3.2 15.2 17.4 6.6 26 l-3.7 3.8 3.4 4.8 c1.9 2.6 5 6.9 6.9 9.6 l3.5 4.7 -5.5 0 -5.4 0 -6.6 -9 c-6.5 -8.7 -6.8 -9 -10.7 -9 l-4 0 0 9 0 9 -5 0 -5 0 0 -25z m25.1 -3.9 c2.5 -3 2.4 -7.6 -0.1 -10.1 -1.6 -1.6 -3.3 -2 -8.5 -2 l-6.5 0 0 7.6 0 7.6 6.6 -0.4 c5.5 -0.3 7 -0.8 8.5 -2.7z"/>
  <path d="M182 350 l0 -25 17 0 17 0 0 4.5 0 4.5 -12 0 -12 0 0 5.5 0 5.5 8.5 0 8.5 0 0 4 0 4 -8.5 0 -8.5 0 0 6.5 0 6.5 12 0 12 0 0 4.5 0 4.5 -17 0 -17 0 0 -25z"/>
  <path d="M258 350 l0 -25 16 0 16 0 0 4.5 0 4.5 -11.5 0 -11.5 0 0 6.5 0 6.5 9.5 0 9.5 0 0 4.5 0 4.5 -9.5 0 -9.5 0 0 9.5 0 9.5 -4.5 0 -4.5 0 0 -25z"/>
  <path d="M330 350 l0 -25 17 0 17 0 0 4.5 0 4.5 -12 0 -12 0 0 5.5 0 5.5 8.5 0 8.5 0 0 4 0 4 -8.5 0 -8.5 0 0 6.5 0 6.5 12.5 0 12.5 0 0 4.5 0 4.5 -17.5 0 -17.5 0 0 -25z"/>
  <path d="M405.4 369.8 c0.3 -2.9 0.6 -14.2 0.6 -25 l0 -19.8 5.2 0 5.1 0 -0.6 18.2 c-0.4 9.9 -0.7 21.2 -0.7 25 l0 6.8 -5.1 0 -5.2 0 0.7 -5.2z"/>
  <path d="M471 354.5 l0 -20.5 -8.5 0 -8.5 0 0 -4.5 0 -4.5 21.5 0 21.5 0 0 4.5 0 4.5 -8.5 0 -8.5 0 0 20.5 0 20.5 -4.5 0 -4.5 0 0 -20.5z"/>
  <path d="M621 350 l0 -25 10.6 0 c5.9 0 12.4 0.5 14.6 1.2 12.1 3.6 15 19.2 5 27.4 l-2.6 2.1 6.1 8.4 c8.4 11.8 8.2 10.9 2.1 10.9 l-5.3 -0.1 -6.4 -8.9 c-6.2 -8.7 -6.6 -9 -10.3 -9 l-3.8 0 0 9 0 9 -5 0 -5 0 0 -25z m22.3 -2.1 c3 -1.6 3.7 -2.8 3.7 -6.8 0 -5.4 -2.2 -7.1 -9.7 -7.1 l-6.3 0 0 7.5 0 7.5 5.1 0 c2.8 0 6 -0.5 7.2 -1.1z"/>
  <path d="M697.3 374.3 c0.2 -0.5 5.3 -12 11.2 -25.6 7.9 -18 11.3 -24.7 12.4 -24.5 0.9 0.2 5.8 10.1 12.2 24.8 5.9 13.5 10.8 24.8 10.8 25.3 0.1 0.4 -2.2 0.7 -5 0.7 -4.7 0 -5.1 -0.2 -6 -3 l-1.1 -3 -11 0 -11 0 -1.1 3 c-1.1 2.8 -1.5 3 -6.5 3 -2.9 0 -5.1 -0.3 -4.9 -0.7z m28.6 -18.5 c-1.2 -2.9 -2.6 -6.8 -3.2 -8.6 -0.6 -1.8 -1.5 -3.1 -2 -2.9 -0.8 0.2 -6.7 14.2 -6.7 16 0 0.4 3.1 0.7 7 0.7 l7 0 -2.1 -5.2z"/>
  <path d="M652.5 271 c-37.5 -5.3 -65.8 -30.6 -72.9 -65.3 -9.1 -44 18.1 -85.8 63.1 -96.9 12.9 -3.1 30.3 -2.9 43.5 0.5 30.1 7.9 53.1 30.3 60.9 59.3 3 11.1 3 29.7 0 40.8 -9.5 35.3 -41.3 60.1 -79.4 62 -5.1 0.3 -11.9 0.1 -15.2 -0.4z m23.9 -52.1 c6.9 -2.5 14.4 -9.2 17.6 -15.5 1.9 -3.7 2.6 -6.9 2.8 -13.1 0.4 -7.2 0.1 -8.8 -2.4 -14.3 -3.4 -7.6 -10.3 -14.1 -18.2 -17 -7.9 -3 -20.5 -2.6 -27.7 1 -25.8 12.6 -23.8 49.5 3.3 59.5 5.8 2.1 18.1 1.9 24.6 -0.6z"/>
  <path d="M316 163.4 l0 -103.6 48.3 0.4 c48.1 0.4 48.2 0.4 57.8 3 11.1 3 20.9 7.7 29.4 14.1 24.6 18.5 32.7 55 18.7 84.2 -4.7 9.6 -11.9 18.6 -19.5 24 -3.1 2.2 -5.6 4.4 -5.7 4.8 0 0.4 8.9 13.3 19.7 28.5 10.8 15.2 23 32.3 27 38 l7.3 10.2 -29.8 0 -29.7 0 -23.5 -32.5 -23.5 -32.4 -11.2 -0.1 -11.3 0 0 32.5 0 32.5 -27 0 -27 0 0 -103.6z m90.4 -8.8 c10.8 -3.3 16.1 -11 16 -23.6 0 -8.8 -2.3 -14.1 -7.9 -18.8 -5.4 -4.4 -9.5 -5.2 -27.9 -5.2 l-16.6 0 0 24.5 0 24.5 15.8 0 c10.8 0 17.4 -0.5 20.6 -1.4z"/>
  <path d="M506 201.5 l0 -65.5 26.5 0 26.5 0 0 65.5 0 65.5 -26.5 0 -26.5 0 0 -65.5z"/>
  <path d="M526.4 125 c-10.3 -2.1 -19.5 -9.2 -23.5 -18.3 -3.1 -7.2 -3.1 -17.2 0 -24.5 5.8 -13 21.6 -21.1 35.7 -18.2 7.5 1.6 12.5 4.1 17.3 8.9 17 17 8.6 45.4 -15.4 51.6 -6.4 1.6 -7.9 1.7 -14.1 0.5z"/>
 </g>
 <g fill="#00c0f3">
  <path d="M73.4 265.9 c-2.8 -0.4 -6.1 -1.2 -7.5 -1.7 -2.2 -0.8 -1.9 -1.1 3.3 -2.6 10.2 -2.9 19.4 -1.9 26.8 3.1 l3.5 2.3 -10.5 -0.1 c-5.8 -0.1 -12.8 -0.5 -15.6 -1z"/>
  <path d="M99.7 263.5 c-8.6 -7.5 -18.7 -8.3 -38.1 -2.9 -11.4 3.2 -13.9 3.6 -21.5 3.2 -6.5 -0.3 -9.9 -1 -14.1 -3 -10.4 -4.9 -10.4 -4.7 -0.2 -11.1 12.9 -8.2 15.2 -10.6 15.2 -15.6 0 -2.3 -1.1 -6.9 -2.5 -10.1 -5.8 -13.9 -7.4 -29.9 -4 -41.9 1.2 -4 4.1 -9.9 7.8 -15.5 11 -16.7 16.1 -29.8 14.4 -36.8 l-0.7 -2.5 -5.2 2.6 c-5.5 2.7 -16.3 4 -20.5 2.4 -2.1 -0.8 -1.9 -1.2 4.7 -10.2 7.5 -10.3 8.4 -11.1 11.8 -11.1 2 0 2.2 -0.4 1.7 -3.3 -0.5 -2.8 0.2 -4.3 6.5 -13 4 -5.3 7.5 -9.7 8 -9.7 0.4 0 1.8 2.4 3 5.3 3.6 8.3 3.1 17.1 -1.4 26.1 l-3.6 7.1 2 5.3 c2.8 7.3 2.5 11.9 -1.4 22 -4.4 11.5 -5 14.5 -3.6 18.7 2 6 5 7.5 14.8 7.5 l8.5 0 -0.7 5.1 c-0.4 2.8 -1.8 8.1 -3.2 11.7 -4.5 11.7 -4.4 14.8 0.6 20.6 3.8 4.3 8.7 6.3 18.1 7.1 12 1.1 19.4 5.4 24.5 14.1 3 5.2 4.4 15.5 2.4 17.9 -1.8 2.2 -8.3 3.9 -12.2 3.1 -2.7 -0.5 -3.3 -1.1 -3.4 -3.2 -0.3 -3.7 -3.2 -6.4 -7.1 -6.4 -1.8 0 -3.3 0.3 -3.2 0.8 0 0.4 3.2 3.5 7.1 7 l7 6.2 13.9 0 c11.4 0 13.9 0.3 13.9 1.4 0 0.8 -0.7 2.2 -1.6 3 -1.3 1.3 -4.3 1.6 -17.7 1.6 l-16.2 -0.1 -3.8 -3.4z"/>
  <path d="M143.8 265.9 c-1 -0.5 -1.8 -1.9 -1.8 -2.9 0 -1.9 0.8 -2 13.8 -2 l13.7 0 7.5 -7 7.5 -6.9 -3.7 -0.1 c-4.2 0 -7.8 3 -7.8 6.6 0 3.9 -7.3 4.7 -12.7 1.4 -3.1 -1.8 -3.3 -2.4 -3.3 -7.4 0 -6.7 2 -11.5 7.1 -17.1 4.9 -5.3 11.2 -8.1 20.8 -9 17.2 -1.6 25.5 -11.2 20.1 -23.1 -2.8 -6.3 -5 -14 -5 -18.1 l0 -3.3 8.1 0 c9.1 0 11.2 -0.8 13.4 -5 2.4 -4.6 1.8 -10.3 -2 -20 -4.1 -10.4 -4.5 -16.4 -1.6 -24.1 l2 -5 -2.9 -4.5 c-5.7 -9 -6.3 -19.6 -1.8 -29.5 l2.3 -5 7.3 9.7 c6 8.1 7.2 10.4 7.2 13.6 0 3.3 0.3 3.8 2.3 3.8 2.7 0 5 2.4 13 13.2 l5.7 7.7 -3.6 0.7 c-6.1 1.1 -15 -0.2 -20 -3 -2.6 -1.4 -4.9 -2.6 -5.2 -2.6 -0.2 0 -0.2 3.3 0 7.4 0.6 8.8 4.1 17 13.6 31.3 8.4 12.8 9.7 17.1 9.7 31.3 -0.1 12.1 -1.1 16.7 -6.1 28.7 -4.6 10.8 -2.9 13.7 14.8 25 l7.7 4.8 -4.2 2.7 c-11.3 7 -24.1 7.5 -43 1.8 -16.8 -5 -27.7 -3.7 -37.5 4.5 -2.9 2.4 -3.3 2.5 -18.3 2.5 -8.6 0 -16.2 -0.5 -17.1 -1.1z"/>
  <path d="M183.5 265.4 c6.6 -5.4 16.8 -6.8 27.9 -3.7 l6 1.7 -4.9 1.4 c-2.8 0.7 -10.8 1.6 -18 1.8 -12.2 0.5 -12.9 0.4 -11 -1.2z"/>
  <path d="M120 257.9 c1.3 -0.6 3.1 -1.6 4 -2.3 1.3 -1.2 2.3 -1 6.5 0.9 l5 2.3 -9 0.1 c-6.9 0 -8.4 -0.3 -6.5 -1z"/>
  <path d="M149.8 256.7 l4.2 -2.1 4.3 2.1 4.2 2.2 -8.5 0 -8.5 0 4.3 -2.2z"/>
  <path d="M128.8 241.3 c-1.6 -0.2 -2.8 -0.8 -2.8 -1.3 0 -0.5 -0.2 -1.4 -0.5 -2.2 -0.4 -1 2.5 -1.3 14.9 -1.3 14.9 0 15.3 0.1 14.6 2 -0.4 1.1 -1.8 2.3 -3.1 2.6 -2.6 0.8 -18.7 0.9 -23.1 0.2z"/>
  <path d="M32 236.9 c-7.8 -12.9 -9.8 -30.9 -4.9 -46.4 2.3 -7.2 4.4 -10.7 3.4 -5.6 -2.2 10.8 0 27.5 5.1 40.2 2.9 7.1 3 11 0.5 13.4 -1.9 1.7 -2.1 1.6 -4.1 -1.6z"/>
  <path d="M243.4 236.6 c-1.6 -3.2 -1.5 -3.6 1.5 -11.2 1.7 -4.4 3.8 -10.8 4.6 -14.4 1.7 -7.6 1.9 -20.8 0.4 -26.3 -1.8 -6.6 -0.3 -5.1 2.6 2.5 3.6 9.6 4.6 25.1 2 34.7 -1.8 7.2 -7 18.1 -8.5 18.1 -0.6 0 -1.8 -1.5 -2.6 -3.4z"/>
  <path d="M132 217.1 c0 -7.8 0 -7.9 3 -9.1 2.5 -1 3 -1.8 3 -4.6 0 -2.7 -0.4 -3.4 -2.2 -3.8 -11 -2.1 -14.2 -3.1 -20.2 -6.1 -6.4 -3.4 -6.9 -3.5 -8.2 -1.8 -1.6 2.2 -1.7 2.5 -0.4 5.8 0.9 2.3 0.5 3.3 -3.7 8.7 l-4.7 6.1 -1.7 -4.1 c-1.5 -3.5 -2.3 -4.2 -4.6 -4.2 -5.4 0 -5.6 -1.2 -1.1 -7.3 3.8 -5.2 4.5 -5.7 8 -5.7 2.7 0 4 -0.5 4.8 -2 1 -1.8 0.5 -2.8 -3.5 -7.3 -8.8 -9.6 -13.5 -22.1 -13.5 -35.2 0 -14.6 4.9 -26.9 14.7 -37.3 l5.2 -5.6 -2.6 -3.4 c-2.4 -3.3 -2.7 -3.4 -3.9 -1.7 -0.8 1 -1.5 1.7 -1.7 1.4 -0.2 -0.2 -1.3 -4 -2.4 -8.5 l-2 -8 8.3 4.5 c7.7 4.4 8 4.6 5.2 5.1 l-3 0.5 2.3 3 c1.2 1.7 2.6 3.4 2.9 3.8 0.4 0.5 2.9 -0.3 5.6 -1.6 6.2 -3.1 14.8 -5.7 19.1 -5.7 3.2 0 3.3 -0.1 3.3 -4.5 0 -4.9 -0.1 -5 -3.1 -3.5 -1 0.6 -1.9 0.9 -1.9 0.7 0 -0.3 1.6 -4 3.6 -8.3 l3.7 -7.9 2.4 5.5 c4.5 9.9 4.6 10.2 2.3 9.5 -1.8 -0.6 -2 -0.2 -2 3.7 l0 4.4 6.8 1 c3.7 0.6 9.9 2.6 13.7 4.4 l6.8 3.3 2.8 -3.4 c3.5 -4.2 3.6 -4.7 0.2 -5.1 -2.5 -0.3 -2 -0.8 4.7 -4.5 8.8 -4.9 9 -4.7 6.1 6.2 -1.6 5.6 -2.1 6.5 -2.6 4.7 -1 -3 -1.8 -2.8 -5 1.4 l-2.7 3.5 4.9 5.2 c15.7 16.6 19.4 39.5 9.8 59.7 -1.9 3.8 -5.5 9.3 -8.1 12 -4.4 4.7 -4.6 5.2 -3.4 7.5 1.1 2 2.1 2.5 5 2.5 3.4 0 4.2 0.6 8 5.6 4.6 6 4.3 7.4 -1.2 7.4 -2.2 0 -3.1 0.8 -4.5 4.1 l-1.8 4.1 -4.8 -6.1 c-4 -5 -4.6 -6.4 -3.7 -8 1.4 -2.6 1.3 -4.3 -0.4 -6.6 -1.3 -1.8 -1.6 -1.8 -7.2 1.2 -5.2 2.8 -12.1 5 -20.6 6.8 -2.4 0.5 -2.8 1 -2.8 4 0 2.8 0.5 3.8 2.5 4.7 2.4 1.1 2.5 1.6 2.5 9 l0 7.9 -3.9 -2.2 -4 -2.2 -3.6 2.2 c-2 1.1 -3.8 2.1 -4.1 2.1 -0.2 0 -0.4 -3.5 -0.4 -7.9z m6 -27.6 l0 -5.5 -6.7 0 -6.6 0 2.4 2.6 c2.2 2.4 9.7 8.4 10.6 8.4 0.1 0 0.3 -2.5 0.3 -5.5z m15.9 -3.4 c1.3 -2.1 1.2 -2.1 -4.8 -2.1 l-6.1 0 0 5.6 0 5.6 4.7 -3.5 c2.6 -1.9 5.4 -4.5 6.2 -5.6z m-30.5 2.5 c-3.3 -3.8 -4.4 -4.4 -7.3 -4.3 -5.4 0.3 -4.7 2.2 2 5.6 8.7 4.3 9.9 4 5.3 -1.3z m37.1 2.2 c4.6 -2.3 5.4 -3.5 3.3 -5.6 -1.8 -1.8 -2 -1.6 -6.1 3.3 -4.3 5.1 -3.8 5.5 2.8 2.3z m-48 -13.1 c1.3 -2.1 1.3 -2.8 -0.2 -6.5 l-1.6 -4.2 -7.4 0 c-4 0 -7.3 0.3 -7.3 0.8 0 0.8 1.9 3.7 5.7 9 3.1 4.1 8.4 4.5 10.8 0.9z m25.5 -4.2 l0 -6.5 -5.9 0 c-5.7 0 -6 0.1 -9.1 4 -2.4 3 -3.1 4.7 -2.6 6.5 0.6 2.4 0.9 2.5 9.1 2.5 l8.5 0 0 -6.5z m21 5.6 c0 -0.6 -0.4 -1.2 -0.8 -1.5 -0.5 -0.3 -2.1 -2.3 -3.6 -4.5 -2.6 -3.7 -2.7 -4.2 -1.2 -5.6 1.1 -1.2 1.6 -3.5 1.6 -7.7 l0 -6.1 3.6 4.6 c3.4 4.4 6.5 5.9 7.8 3.8 0.3 -0.5 0.9 -4.1 1.2 -8 l0.7 -7.1 -6.2 0 c-5.4 0 -6.1 -0.2 -6.1 -2 0 -1.8 0.7 -2 6 -2 6.9 0 6.9 -0.1 4.9 -10.3 l-1.2 -5.7 -4.8 0 c-3.5 0 -5.1 0.5 -5.8 1.7 -0.9 1.7 -1 1.7 -2.8 0.1 -5.6 -5.1 -17.9 -6.5 -22.8 -2.7 -2.2 1.8 -2.6 2.8 -2.3 6 0.2 2.2 0.1 3.9 -0.3 3.9 -0.3 0 -2 -2 -3.8 -4.5 -2.3 -3.2 -3.9 -4.5 -5.6 -4.5 -2.6 0 -3.6 2.4 -4.9 11.8 l-0.6 4.2 4.6 0 c3.8 0 4.5 0.3 4.2 1.8 -0.2 1.2 -1.5 1.8 -4.6 2 -4.8 0.4 -4.8 0.3 -3.1 9.9 l1.1 6.3 4.8 0 c4.8 0 5.8 -0.7 10.5 -7.8 0.1 -0.1 1 0 1.9 0.4 2 0.8 2.1 2.8 0.1 4.4 -2.6 2.2 -1.6 3.1 2.8 2.8 3.8 -0.3 4.4 0 6.5 2.9 1.6 2.4 2.2 4.6 2.2 8.7 l0 5.6 8 0 c4.4 0 8 -0.4 8 -0.9z m22.1 -5.7 c1.6 -2.4 2.9 -4.8 2.9 -5.4 0 -0.7 -2.4 -1 -7.2 -0.8 -6.7 0.3 -7.3 0.5 -7.6 2.6 -0.2 1.4 0.9 3.8 2.8 6.2 3.7 4.6 4.2 4.5 9.1 -2.6z m-62.6 -6.2 c-2.2 -0.5 -2.9 0.3 -2.1 2.5 0.7 1.7 0.8 1.7 2.2 -0.2 1.3 -1.8 1.3 -2 -0.1 -2.3z m-10 -9.9 c-1.2 -11 -0.5 -10.3 -9.5 -10.3 -7.6 0 -8 0.1 -8 2.3 0 2.1 1.6 9.9 2.5 12.5 0.3 0.8 2.9 1.2 8 1.2 l7.6 0 -0.6 -5.7z m79.4 1.3 c0.6 -2.5 1.1 -6.1 1.1 -8 l0 -3.6 -7.9 0 -7.8 0 -0.7 5.7 c-0.4 3.1 -0.9 6.7 -1.2 8 -0.6 2.3 -0.5 2.3 7.4 2.3 l8 0 1.1 -4.4z m-79.6 -21.9 c0.3 -3.4 0.9 -7 1.3 -8 0.6 -1.6 0 -1.8 -7.1 -1.5 l-7.8 0.3 -1.2 3.5 c-0.7 1.9 -1.5 5.4 -1.9 7.8 l-0.6 4.2 8.3 0 8.4 0 0.6 -6.3z m80.3 1.4 c-0.4 -2.7 -1.1 -6.3 -1.7 -8 -1.1 -3.1 -1.1 -3.1 -8.5 -3.1 -4.5 0 -7.4 0.4 -7.4 1.1 0 0.5 0.5 4.1 1.1 8 l1.2 6.9 8 0 8 0 -0.7 -4.9z m-76.2 -17.3 c0.6 -2.6 -3.8 -9.8 -6 -9.8 -1.3 0 -6.2 5.8 -8.3 9.8 -1.2 2.2 -1.1 2.2 6.2 2.2 6.9 0 7.5 -0.2 8.1 -2.2z m25.6 -3.8 l0 -6 -7.6 0 c-6 0 -7.4 0.3 -6.7 1.3 6.7 8.8 8.7 10.7 11.4 10.7 2.9 0 2.9 -0.1 2.9 -6z m19 2 c2.6 -3.3 2.9 -4.3 2 -6 -0.9 -1.7 -2 -2 -8.5 -2 l-7.5 0 0 6 0 6 5.4 0 c5.1 0 5.6 -0.2 8.6 -4z m6.8 2.8 c-0.6 -1.8 -2.5 -2 -3.1 -0.3 -0.5 1 0 1.5 1.4 1.5 1.2 0 1.9 -0.5 1.7 -1.2z m19.2 0.4 c0 -1.1 -2.8 -5.2 -5.8 -8.4 -1.8 -2 -3.6 -2.8 -5.9 -2.8 -4.6 0 -6 3.1 -3.8 8.3 l1.5 3.7 7 0 c3.9 0 7 -0.3 7 -0.8z m-59.5 -19.2 c3.6 -3.7 2.9 -4.5 -2.1 -2.4 -4.9 2 -4.9 2 -3.4 3.9 1.7 2.1 2.2 1.9 5.5 -1.5z m14.5 -1 c0 -2.2 -0.4 -4 -0.8 -4 -1.1 0 -8.8 5.5 -9.7 6.9 -0.4 0.7 1.3 1.1 4.9 1.1 l5.6 0 0 -4z m11.1 0 c-2.4 -2.2 -4.7 -4 -5.2 -4 -0.5 0 -0.9 1.8 -0.9 4 l0 4 5.3 0 5.2 -0.1 -4.4 -3.9z m17.9 3.1 c0 -0.7 -10.8 -6.1 -12.4 -6.1 -0.4 0 0.6 1.6 2.1 3.5 2.3 2.9 3.5 3.5 6.6 3.5 2 0 3.7 -0.4 3.7 -0.9z"/>
  <path d="M145.3 166.4 c-0.6 -0.3 -2.6 -2.7 -4.3 -5.4 -3.8 -5.9 -6.8 -8 -12.9 -8.9 l-4.6 -0.7 0.1 -3.9 c0.1 -3.2 0.9 -4.6 4.4 -7.8 4 -3.8 4.4 -3.9 9.1 -3.4 2.8 0.4 4.9 0.2 4.9 -0.3 0 -1 -1.8 -1.3 -7.9 -1.4 -4.5 -0.1 -6.2 -2.7 -3.7 -5.5 1.5 -1.7 3.1 -2.1 7.5 -2.1 6.8 0 11.8 2.4 14.5 7 1.8 3 1.8 3.9 0.7 12.5 -0.7 5.2 -0.9 11 -0.5 13 1 5.3 -2.6 8.7 -7.3 6.9z m-0.7 -18.9 c1.5 -2.3 1.5 -2.7 0 -5 -1.1 -1.7 -2.6 -2.5 -4.4 -2.5 -3.5 0 -5.2 1.6 -5.2 5 0 3.4 1.7 5 5.2 5 1.8 0 3.3 -0.8 4.4 -2.5z"/>
  <path d="M83.3 215 c-3.5 -2.1 -6.3 -6.6 -6.3 -10.2 0 -2 0.4 -1.7 2.8 1.9 1.5 2.2 3.7 5.5 5 7.2 2.7 3.6 2.7 3.7 -1.5 1.1z"/>
  <path d="M195.7 213.8 c1.8 -1.8 4.3 -5.3 5.7 -7.8 2.5 -4.4 2.6 -4.4 2.6 -1.5 0 3.6 -2.8 8.1 -6.6 10.6 -4.4 2.9 -5.1 2.3 -1.7 -1.3z"/>
  <path d="M252.8 171.8 c-2.8 -2.9 -3.7 -3.4 -4.2 -2.2 -0.9 2.4 -2.6 0.6 -2.6 -2.7 0 -2.3 -0.4 -2.9 -1.7 -2.7 -1.4 0.2 -1.7 -0.3 -1.5 -2.4 0.2 -2.2 -0.1 -2.6 -1.4 -2.1 -1.4 0.5 -1.6 0.1 -1.2 -2.7 0.4 -2.6 0.1 -3.4 -1.4 -3.8 -1.1 -0.3 -1.7 -1 -1.4 -1.9 0.4 -0.8 -0.4 -1.7 -1.8 -2.3 -3 -1.1 -4.3 -3 -2.1 -3 1.4 0 1.4 -0.3 0 -3 -1.7 -3.3 -2 -6 -0.6 -6 0.5 0 2.3 1.1 3.9 2.5 2.7 2.3 3 2.3 3.7 0.7 0.6 -1.6 0.7 -1.6 1.7 0.1 0.9 1.8 1.1 1.8 2.5 -0.3 1.5 -2.1 1.7 -2.1 2.6 -0.5 0.8 1.6 1.1 1.4 2.3 -1.4 1.4 -3.3 4.2 -3.8 3.6 -0.7 -0.4 2 -0.4 2 4.3 -0.4 7 -3.6 8.9 -1.7 3.5 3.5 -2.8 2.6 -2.9 3.1 -1.5 4.2 1.5 1 1.5 1.2 -0.4 2.2 -1.1 0.6 -3 1.1 -4.2 1.1 -1.7 0 -1.9 0.3 -1 1.4 0.9 1.1 0.8 1.5 -0.5 2 -0.9 0.3 -2.1 0.3 -2.7 -0.1 -0.6 -0.4 -0.8 0 -0.4 1 0.4 1 0.1 1.7 -0.6 1.8 -0.7 0 0.4 0.7 2.3 1.6 3 1.3 3.3 1.6 1.8 2.7 -1.4 1 -1.3 1.4 1.4 2.9 2.9 1.7 3.1 4.1 0.3 3 -1.9 -0.7 -1.9 -0.4 0.1 4.2 0.8 2 1.3 4.4 1.1 5.3 -0.2 1.3 -1.1 0.9 -3.9 -2z"/>
  <path d="M63.8 173 c-0.9 -0.6 -2.1 -2.5 -2.7 -4.3 -1.2 -3.5 -0.8 -5.2 4.3 -19.2 3 -8.3 3.3 -14.7 0.8 -21.3 -1.6 -4.3 -1.7 -5.2 -0.5 -6.8 1.4 -1.8 1.5 -1.8 3.3 0.6 1.1 1.4 3.1 5.4 4.6 9 3.3 8.1 3.4 14.9 0.5 25 -1.1 4.2 -2.2 9.9 -2.3 12.8 -0.3 5 -0.4 5.2 -3.3 5.2 -1.6 -0.1 -3.8 -0.5 -4.7 -1z"/>
  <path d="M209 169.9 c0 -2.2 -1.2 -8.6 -2.6 -14.2 -3.3 -12.6 -2.9 -17.2 2.6 -28.6 4 -8.2 4.1 -8.4 5.6 -6.2 1.4 2 1.4 2.6 0 6.8 -2.6 7.7 -2.1 15.1 1.9 25.3 1.9 4.9 3.5 10.5 3.5 12.3 0 4.9 -3.3 8.7 -7.6 8.7 -3.3 0 -3.4 -0.1 -3.4 -4.1z"/>
  <path d="M16.1 169 l-2.4 -1.1 3.4 -3.5 c4.1 -4.3 6 -5.4 11.9 -6.9 l4.5 -1.2 -3 -1.5 c-3.8 -2 -8.8 -7.3 -10.9 -11.5 -2.5 -5.1 -2.2 -5.7 3.1 -4.9 5.3 0.7 12.2 4.4 15.1 8.1 2.7 3.4 3.2 3.2 3.2 -1.5 0 -4.3 2.3 -10 4.1 -10 1.8 0 4.1 7.2 3.6 11.2 -0.8 5.8 -8.7 17.2 -14.4 20.5 -5.1 3 -13.9 4.1 -18.2 2.3z"/>
  <path d="M260.5 131.4 c-1.6 -0.8 -4 -2.5 -5.2 -3.6 l-2.3 -2.1 2.6 -3.4 c1.4 -1.9 2.4 -3.5 2.3 -3.6 -0.2 -0.2 -1.2 -0.9 -2.2 -1.7 -1.7 -1.2 -1.8 -1.1 -1.2 1.3 0.8 3.2 0.1 3.3 -4.3 0.7 -4.6 -2.8 -6 -6.2 -3.8 -9.4 0.9 -1.4 1.6 -2.8 1.6 -3.1 0 -0.3 -2.3 -0.5 -5.1 -0.5 l-5.2 0 0.5 -4.9 0.5 -5 -2.8 0.6 c-2.6 0.5 -3.1 0.1 -4.9 -3.8 -1.1 -2.4 -2 -6.1 -2 -8.3 0 -3.3 0.2 -3.7 1.5 -2.6 2.3 1.9 2.7 0.7 1.1 -3.1 l-1.4 -3.4 -1.7 4.3 c-1 2.3 -2 4.2 -2.4 4.2 -1.5 0 -7.1 -4.1 -8.1 -6 -0.9 -1.6 -0.8 -2.1 0.4 -2.6 1.2 -0.5 1.2 -1 -0.5 -3.7 -2.4 -4.1 -2.4 -5.1 0.1 -4.4 1.8 0.5 2 0 2 -5.9 0 -3.5 0.4 -6.4 0.9 -6.4 0.5 0 1.8 2.3 2.9 5.1 1.1 3 2.2 4.7 2.6 4 1.6 -2.6 2.8 -1 2.3 3 -0.4 3.4 -0.3 4 1 3.5 0.9 -0.4 2.5 0.2 3.6 1.1 2 1.8 2 1.7 1.3 -1 -0.8 -3.4 0.2 -9.7 1.6 -9.7 0.5 0 1.2 0.9 1.5 2 0.8 3 1.5 2.5 4.9 -3.8 3.7 -6.8 6.4 -8.1 6.4 -2.9 0 1.8 -0.6 5.5 -1.4 8 -1.4 4.7 -1.4 4.7 1 4.7 3.4 0 3 2.6 -1 6.6 -2 2 -2.8 3.4 -2 3.4 0.8 0 2.3 0.9 3.4 2 l2 2 1.1 -2.7 c2.3 -6 5.9 -7.7 5.9 -2.7 0 2.3 0.2 2.3 6.1 -2.1 3.4 -2.5 6.9 -4.5 8 -4.5 1.6 0 1.7 0.4 0.8 3 -0.6 1.6 -2.8 4.9 -5 7.3 l-3.9 4.5 3.3 0.6 3.2 0.7 -3.3 2.9 c-1.8 1.7 -3.9 3 -4.7 3 -0.9 0 -1.4 0.8 -1.2 2.2 0.1 1.7 -0.5 2.4 -2.9 3.1 -2.6 0.8 -3.1 1.4 -3 3.8 0.1 3.3 0.4 3.4 3 1.4 2.7 -2.1 3.9 -1.9 3.1 0.5 -0.3 1.1 -0.3 2 0 2 0.4 0 1.8 -0.9 3.2 -2 1.4 -1.1 3.4 -2 4.5 -2 1.5 0 1.7 0.3 0.8 1.9 -1.4 2.7 -1.3 2.9 1.3 2.4 1.3 -0.3 4.3 0.1 6.8 0.7 l4.4 1.2 -3.5 1.8 c-1.9 1 -5 2.1 -6.8 2.5 -2.5 0.5 -3.1 1 -2.3 1.8 0.6 0.6 1.1 1.5 1.1 1.9 0 1.2 -6.8 1 -7.5 -0.2 -1.2 -2 -2.4 -1 -1.6 1.3 0.4 1.2 0.6 2.8 0.4 3.5 -0.6 1.6 0.7 1.5 3.1 -0.3 3.4 -2.6 7.3 -1.6 4.5 1.2 -0.7 0.7 0.5 1.2 4.1 1.6 2.7 0.3 5.8 1 6.8 1.6 1.5 0.8 1.4 1.1 -1.1 2 -1.6 0.6 -4.2 1.1 -5.8 1.1 -3.1 0 -3.6 0.9 -1.7 2.8 1.7 1.7 -1.9 1.6 -5.4 -0.2 -2.5 -1.3 -2.7 -1.3 -3 0.5 -0.3 1.8 -0.5 1.8 -3.3 0.3z"/>
  <path d="M7 128.3 c0 -0.9 2.5 -4.1 5.5 -7 5.3 -5.2 5.4 -5.3 2.7 -5.3 -3.2 0 -13.4 -4.9 -14 -6.7 -0.6 -2.2 10.5 -6.6 16.9 -6.7 l5.9 -0.1 -4.4 -4.5 c-4.1 -4.2 -8.6 -11.5 -8.6 -14 0 -1.9 9.4 -1 15.3 1.5 l5.9 2.4 -0.7 -2.2 c-1.2 -3.7 -1.7 -15.1 -0.8 -17.5 l0.9 -2.3 4.6 3.5 4.6 3.5 0.6 -3.7 c0.8 -4.5 3.6 -11.2 4.7 -11.2 0.5 0 2 1.8 3.5 4 l2.6 3.9 2.9 -5.8 c1.6 -3.3 3.6 -6.4 4.3 -7 2.3 -1.9 5 5.2 5.1 13 0 5.6 -0.4 7.3 -3.1 11.5 -2.3 3.7 -3.6 4.8 -5.2 4.7 -1.5 -0.2 -2.2 0.3 -2.2 1.5 -0.1 0.9 -0.9 3.2 -1.9 5 -1.6 3.1 -1.8 3.2 -3.1 1.7 -1.3 -1.6 -1.5 -1.2 -2.5 3.6 -0.8 4.3 -1.4 5.3 -2.7 5.1 -2.2 -0.4 -2.2 -0.3 -0.2 4.3 l1.5 3.7 -5.5 -0.4 c-5.1 -0.3 -5.4 -0.2 -3.9 1.4 1.4 1.6 1.2 1.9 -2.2 3.9 -3.3 2 -3.5 2.4 -2.1 3.4 2.6 1.9 -3.1 9 -9.7 12.1 -6.4 2.9 -14.7 3.3 -14.7 0.7z"/>
  <path d="M207 94.3 l0 -29.3 -67 0 -67 0 -0.2 28.2 c-0.3 27.5 -0.3 28.1 -2.1 25.5 -1.6 -2.5 -1.7 -3.1 -0.2 -7.9 1.9 -6.5 1.9 -12.1 0 -18.4 -1 -3.3 -1.5 -9.4 -1.5 -18.6 l0 -13.7 12.8 -0.3 c10.8 -0.4 13.8 -0.8 19.8 -3.1 23 -8.7 52 -8.7 77 -0.2 9.4 3.2 11.2 3.5 21.8 3.5 l11.6 0 0 13.4 c0 9.3 -0.5 14.6 -1.5 17.6 -1.8 5.2 -1.9 16.2 -0.1 21.1 1.2 3.4 1.1 4 -1.1 7.5 l-2.3 3.9 0 -29.2z m-36.9 -35.4 c-9.4 -3.7 -34.6 -5 -49.3 -2.4 -16.9 2.9 -14.4 3.4 19.2 3.4 21.7 0 31.7 -0.3 30.1 -1z"/>
  <path d="M88.4 52.7 c-0.4 -1.4 0 -2.5 1.6 -3.7 l2.3 -1.7 -3.2 -5.7 c-3.4 -5.9 -6.1 -8.1 -9.1 -7.3 -1.2 0.3 -2.2 -0.6 -3.4 -3.1 -0.9 -1.9 -1.6 -3.6 -1.4 -3.7 0.2 -0.1 2.7 -1.4 5.6 -2.9 3.5 -1.8 5.2 -2.2 5.2 -1.4 0.1 3.3 1.5 3.8 5.7 2.2 3.4 -1.4 4.1 -2.1 4 -4.2 -0.2 -2.4 0.3 -2.7 10.8 -5.3 11.1 -2.8 12.4 -2.7 12.5 1 0 0.8 0.6 1.1 1.6 0.7 0.9 -0.3 2.9 -0.6 4.5 -0.6 2.4 0 2.9 -0.4 2.9 -2.5 l0 -2.5 12 0 12 0 0 2.5 c0 2.1 0.5 2.5 2.8 2.5 1.5 0 3.7 0.3 5 0.6 1.9 0.5 2.2 0.2 2.2 -2 0 -3.1 -0.4 -3.1 8.4 -0.7 3.9 1.1 9 2.5 11.3 3.1 3.9 1 4.2 1.2 3.3 3.5 -0.8 2.2 -0.5 2.5 3.7 3.9 4.3 1.5 4.5 1.5 5 -0.4 0.3 -1.1 0.9 -2 1.4 -2 1.6 0 9.9 4.4 9.9 5.2 0 2.5 -3.4 5.8 -6 5.8 -3.2 0 -4.9 1.7 -8.4 8.7 l-2.6 5.2 2.3 1.2 c3 1.6 3 1.5 1.8 3.8 -1.1 2 -1.1 2 -5.4 0.1 -7.7 -3.4 -22.9 -7 -34.9 -8.2 -18.9 -1.9 -39.3 0.9 -57.5 8 l-5.2 2 -0.7 -2.1z m24.7 -10.8 c1.9 -0.6 3.9 -1.2 4.5 -1.4 1.5 -0.5 -1.9 -13.1 -4.2 -15.6 -2.1 -2.3 -5.2 -2.4 -8.3 -0.3 -2.1 1.5 -2.3 2.2 -1.8 6.3 1.6 11.9 2.8 13.3 9.8 11z m62.6 -4.4 c2 -7.5 1.4 -11.6 -1.9 -13.5 -5.5 -3 -9.6 1.7 -11.4 12.9 -0.6 3.8 -0.6 3.8 3.7 4.8 7.2 1.8 8.1 1.4 9.6 -4.2z m-28.7 -6 c0 -6.7 -0.3 -7.9 -2.5 -10 -2.8 -2.9 -5.1 -3.1 -8.3 -0.9 -2 1.4 -2.2 2.4 -2.2 10 l0 8.4 6.5 0 6.5 0 0 -7.5z"/>
  <path d="M71 21.1 c-1.6 -3.1 -1.3 -3.5 4.5 -6.4 5.3 -2.6 5.5 -2.6 6.5 -0.7 1.7 3.1 1.2 3.9 -4 6.5 -5.9 3 -5.7 3 -7 0.6z"/>
  <path d="M201.8 20.5 c-4.5 -2.4 -4.7 -2.6 -3.7 -5.4 l1.1 -3 5.4 2.7 c5.7 2.8 6 3.2 4.4 6.3 -1.3 2.4 -1.4 2.4 -7.2 -0.6z"/>
  <path d="M91.9 11.4 c-0.5 -1.5 -0.8 -2.8 -0.7 -3 0.8 -0.7 24.3 -6.2 25 -5.8 1.5 1 0.8 5.3 -0.9 5.8 -4 1.2 -20.9 5.6 -21.6 5.6 -0.4 0 -1.2 -1.2 -1.8 -2.6z"/>
  <path d="M178 12 c-3.6 -1 -8.4 -2.3 -10.8 -3 -3.9 -1 -4.2 -1.3 -3.6 -3.8 0.4 -1.5 0.8 -2.8 0.9 -3 0.2 -0.2 23.8 5.8 24.3 6.3 0.2 0.1 0 1.4 -0.4 2.9 -0.7 3.1 -1.6 3.1 -10.4 0.6z"/>
  <path d="M127.7 6.3 c-0.4 -0.3 -0.7 -1.9 -0.7 -3.5 l0 -2.8 13 0 13 0 0 3.5 0 3.5 -12.3 0 c-6.8 0 -12.7 -0.3 -13 -0.7z"/>
 </g>
</svg>